<?xml version="1.0" encoding="UTF-8" standalone="no"?><!DOCTYPE svg PUBLIC "-//W3C//DTD SVG 1.1//EN" "http://www.w3.org/Graphics/SVG/1.1/DTD/svg11.dtd"><svg width="100%" height="100%" viewBox="0 0 54 54" version="1.1" xmlns="http://www.w3.org/2000/svg" xmlns:xlink="http://www.w3.org/1999/xlink" xml:space="preserve" xmlns:serif="http://www.serif.com/" style="fill-rule:evenodd;clip-rule:evenodd;"><g id="Page-1"><g id="logo-mobile"><rect id="Rectangle-6" x="2" y="2" width="50" height="50" style="fill:none;stroke:#e5261f;stroke-width:4px;"/><path id="_." serif:id="." d="M35.402,41.895c-0.476,-0.518 -0.714,-1.155 -0.714,-1.911c0,-0.756 0.245,-1.4 0.735,-1.932c0.49,-0.532 1.071,-0.798 1.743,-0.798c0.7,0 1.281,0.266 1.743,0.798c0.462,0.532 0.693,1.176 0.693,1.932c-0,0.756 -0.245,1.393 -0.735,1.911c-0.49,0.518 -1.071,0.777 -1.743,0.777c-0.672,-0 -1.246,-0.259 -1.722,-0.777Z" style="fill:#e5261f;"/><path d="M31.356,11.802c-0.027,1.173 -0.076,2.353 -0.145,3.54c-0.069,1.188 -0.173,2.383 -0.312,3.585l-1.081,-0l-1.705,-4.838l-9.065,-0l-0,11.655l6.778,-0l1.622,-3.255l1.039,0c0.167,2.903 0.167,5.864 0,8.884l-1.039,0l-1.622,-3.342l-6.778,-0l-0,12.27l9.564,0l2.038,-5.278l1.039,0c0.194,1.232 0.333,2.478 0.416,3.739c0.083,1.26 0.097,2.536 0.042,3.826l-20.501,-0l0,-1.275c0.97,-0.47 2.107,-0.821 3.41,-1.056l-0,-26.08c-0.555,-0.117 -1.123,-0.271 -1.705,-0.462c-0.582,-0.19 -1.151,-0.403 -1.705,-0.638l0,-1.275l19.71,-0Z" style="fill:#e5261f;fill-rule:nonzero;"/></g></g></svg>